<svg xmlns="http://www.w3.org/2000/svg" xmlns:xlink="http://www.w3.org/1999/xlink" width="543.762" height="505.126" viewBox="0 0 543.762 505.126">
  <defs>
    <linearGradient id="linear-gradient" x1="0.5" y1="0.923" x2="0.5" y2="-0.187" gradientUnits="objectBoundingBox">
      <stop offset="0" stop-color="#fff"/>
      <stop offset="1" stop-color="#fff"/>
    </linearGradient>
  </defs>
  <g id="Group_20210" data-name="Group 20210" transform="translate(0 0)">
    <path id="Path_20888" data-name="Path 20888" d="M1595.191,797.336h297c66.2-45.631,109.475-120.884,109.475-206.063,0-139.22-115.5-272.083-257.977-272.083s-257.977,132.863-257.977,272.083C1485.716,676.452,1529,751.705,1595.191,797.336Z" transform="translate(-1471.812 -303.693)" opacity="0.94" fill="url(#linear-gradient)"/>
    <ellipse id="Ellipse_159" data-name="Ellipse 159" cx="271.881" cy="10.718" rx="271.881" ry="10.718" transform="translate(0 483.689)" fill="#cee5ed" opacity="0.43"/>
    <g id="Group_20172" data-name="Group 20172" transform="translate(119.909 193.597)">
      <rect id="Rectangle_6197" data-name="Rectangle 6197" width="12.369" height="118.282" transform="translate(50.887 171.864)" fill="#aac6ce"/>
      <rect id="Rectangle_6198" data-name="Rectangle 6198" width="12.369" height="16.628" transform="translate(50.887 171.864)" fill="#85b0ba"/>
      <path id="Rectangle_6199" data-name="Rectangle 6199" d="M2.348,0H115.683a2.348,2.348,0,0,1,2.348,2.348v8.506a0,0,0,0,1,0,0H0a0,0,0,0,1,0,0V2.348A2.348,2.348,0,0,1,2.348,0Z" transform="translate(0 290.186)" fill="#aac6ce"/>
      <path id="Path_20889" data-name="Path 20889" d="M1548.132,549.526h85.712c-31.188-11.2-19.121-116.715-13.355-156.711a13.371,13.371,0,0,0-13.243-15.269h-57.094a23.387,23.387,0,0,0-23.18,20.186c-5.012,36.34-12.9,111.7,2.732,140.875A20.874,20.874,0,0,0,1548.132,549.526Z" transform="translate(-1520.383 -377.545)" fill="#aac6ce"/>
    </g>
    <g id="Group_20175" data-name="Group 20175" transform="translate(28.46 0)">
      <ellipse id="Ellipse_160" data-name="Ellipse 160" cx="60.083" cy="60.083" rx="60.083" ry="60.083" transform="matrix(0.976, -0.218, 0.218, 0.976, 0, 26.208)" fill="#3e8ccc"/>
      <ellipse id="Ellipse_161" data-name="Ellipse 161" cx="49.056" cy="49.056" rx="49.056" ry="49.056" transform="translate(22.684 22.684)" fill="#cee5ed"/>
      <path id="Path_20890" data-name="Path 20890" d="M1513.991,326.012" transform="translate(-1442.252 -289.694)" fill="none" stroke="#3e8ccc" stroke-miterlimit="10" stroke-width="1"/>
      <g id="Group_20174" data-name="Group 20174" transform="translate(54.756 33.809)">
        <g id="Group_20173" data-name="Group 20173">
          <path id="Path_20891" data-name="Path 20891" d="M1511.477,379.858a3.052,3.052,0,0,1-2.158-5.21l12.791-12.791V328.242a3.052,3.052,0,0,1,6.1,0V363.12a3.057,3.057,0,0,1-.895,2.158l-13.685,13.685A3.044,3.044,0,0,1,1511.477,379.858Z" transform="translate(-1508.426 -325.19)" fill="#3e8ccc"/>
        </g>
        <path id="Path_20892" data-name="Path 20892" d="M1525.538,342.053a7.029,7.029,0,1,0-7.029,7.026A7.029,7.029,0,0,0,1525.538,342.053Z" transform="translate(-1502.161 -305.011)" fill="#1e394c"/>
      </g>
    </g>
    <g id="Group_20177" data-name="Group 20177" transform="translate(330.25 127.659)">
      <path id="Path_20893" data-name="Path 20893" d="M1701.422,355.94H1598.887a9.518,9.518,0,0,0-9.52,9.519v46.2a9.518,9.518,0,0,0,9.52,9.519h7.16v11.17a1.792,1.792,0,0,0,2.991,1.331l13.862-12.5h78.522a9.517,9.517,0,0,0,9.519-9.519v-46.2A9.517,9.517,0,0,0,1701.422,355.94Z" transform="translate(-1589.368 -355.94)" fill="#62bdf4"/>
      <g id="Group_20176" data-name="Group 20176" transform="translate(31.665 29.125)">
        <ellipse id="Ellipse_162" data-name="Ellipse 162" cx="4.192" cy="4.192" rx="4.192" ry="4.192" fill="#34648c"/>
        <ellipse id="Ellipse_163" data-name="Ellipse 163" cx="4.192" cy="4.192" rx="4.192" ry="4.192" transform="translate(25.789)" fill="#34648c"/>
        <ellipse id="Ellipse_164" data-name="Ellipse 164" cx="4.192" cy="4.192" rx="4.192" ry="4.192" transform="translate(49.858)" fill="#34648c"/>
      </g>
    </g>
    <g id="Group_20180" data-name="Group 20180" transform="translate(68.387 229.138)">
      <g id="Group_20178" data-name="Group 20178" transform="translate(2.507)">
        <path id="Path_20894" data-name="Path 20894" d="M1540.061,411.827c0-11.308-7.987-22.637-17.836-22.637s-17.836,11.329-17.836,22.637,7.984,20.473,17.836,20.473S1540.061,423.134,1540.061,411.827Z" transform="translate(-1504.389 -389.19)" fill="#67b8ef"/>
        <path id="Path_20895" data-name="Path 20895" d="M1513.311,389.19a13.16,13.16,0,0,0-4.578.861c7.627,2.814,13.258,12.29,13.258,21.776s-5.631,17.442-13.258,19.765a15.654,15.654,0,0,0,4.578.708c9.849,0,17.836-9.165,17.836-20.473S1523.16,389.19,1513.311,389.19Z" transform="translate(-1495.475 -389.19)" fill="#34648c" opacity="0.25"/>
      </g>
      <g id="Group_20179" data-name="Group 20179" transform="translate(0 33.062)">
        <path id="Path_20896" data-name="Path 20896" d="M1503.584,402.974l3.2,28.939a7.14,7.14,0,0,0,7.1,6.354h18.45a7.14,7.14,0,0,0,7.1-6.354l3.2-28.939a2.66,2.66,0,0,0-2.643-2.951h-33.746A2.659,2.659,0,0,0,1503.584,402.974Z" transform="translate(-1503.567 -400.023)" fill="#cee5ed"/>
        <path id="Path_20897" data-name="Path 20897" d="M1506.227,404.348h33.746a2.616,2.616,0,0,1,2.329,1.483l.315-2.857a2.66,2.66,0,0,0-2.643-2.951h-33.746a2.659,2.659,0,0,0-2.643,2.951l.315,2.857A2.612,2.612,0,0,1,1506.227,404.348Z" transform="translate(-1503.567 -400.023)" fill="#aac6ce"/>
        <path id="Path_20898" data-name="Path 20898" d="M1528.505,400.023h-11.7a2.659,2.659,0,0,1,2.643,2.951l-3.2,28.939a7.14,7.14,0,0,1-7.1,6.354h11.7a7.14,7.14,0,0,0,7.1-6.354l3.2-28.939A2.66,2.66,0,0,0,1528.505,400.023Z" transform="translate(-1492.1 -400.023)" fill="#aac6ce"/>
      </g>
    </g>
    <g id="Group_20185" data-name="Group 20185" transform="translate(129.155 130.46)">
      <g id="Group_20183" data-name="Group 20183" transform="translate(0.922 176.464)">
        <g id="Group_20181" data-name="Group 20181" transform="translate(49.445 13.021)">
          <path id="Path_20899" data-name="Path 20899" d="M1564.734,468.29l-1.211,8.363,6.364,8.143,16.14-7.9,1.748-7.649-20.091-3.037Z" transform="translate(-1491.671 -321.952)" fill="#f2bf75"/>
          <path id="Path_20900" data-name="Path 20900" d="M1579.258,488.182l1.667-2.063a.779.779,0,0,1,1.2-.015l1.673,1.963a3.489,3.489,0,0,0,2.716,1.224l37.5-.638a2.015,2.015,0,0,0,.064-2.835c-5.5-5.546-35.077-15.135-36.551-15.944s-10.517,6.22-22.5-.241A126.348,126.348,0,0,0,1562.8,485.1a4.279,4.279,0,0,0,4.328,4.517l9.519-.162A3.422,3.422,0,0,0,1579.258,488.182Z" transform="translate(-1493.168 -314.929)" fill="#1e394c"/>
          <path id="Path_20901" data-name="Path 20901" d="M1544.223,423.951s-15.568,17.21,12.944,35.916c20,13.124,35.766,9.116,48.322,17.07,2.946,1.865,5.183,4.642,5.391,8.121l.638,80.469,1.517.754a27.641,27.641,0,0,0,24.044.262h0l11.356-91.814c.406-6.33-3.012-11.665-6.934-16.652-21.8-27.734-60.405-37.131-70.178-38.733C1558.619,417.261,1544.223,423.951,1544.223,423.951Z" transform="translate(-1539.981 -418.943)" fill="#1e394c"/>
        </g>
        <g id="Group_20182" data-name="Group 20182">
          <path id="Path_20902" data-name="Path 20902" d="M1544.494,468.26l-1.325,8.346,6.252,8.229,16.247-7.68,1.852-7.624-20.047-3.312Z" transform="translate(-1483.994 -308.91)" fill="#f2bf75"/>
          <path id="Path_20903" data-name="Path 20903" d="M1558.794,488.368l1.694-2.042a.778.778,0,0,1,1.2,0l1.645,1.984a3.482,3.482,0,0,0,2.7,1.26l37.506-.125a2.01,2.01,0,0,0,.1-2.832c-5.42-5.622-34.866-15.617-36.328-16.444s-10.6,6.077-22.5-.549a127.117,127.117,0,0,0-2.432,15.437,4.282,4.282,0,0,0,4.267,4.581l9.52-.034A3.438,3.438,0,0,0,1558.794,488.368Z" transform="translate(-1485.636 -301.927)" fill="#1e394c"/>
          <path id="Path_20904" data-name="Path 20904" d="M1530.136,417.7s-18.868,21.028,8.411,44.779c19.139,16.664,36.313,9.541,48.365,19.7,2.829,2.384,4.782,5.622,4.5,9.309l-8.616,81.852.65.421a25.923,25.923,0,0,0,25.155,1.715h0l21.331-86.253c1.336-6.592-1.493-12.69-4.9-18.492-18.932-32.275-48.655-51.512-58.7-54.6C1553.292,412.117,1530.136,417.7,1530.136,417.7Z" transform="translate(-1523.78 -414.677)" fill="#1e394c"/>
        </g>
        <path id="Path_20905" data-name="Path 20905" d="M1587.936,474.311a37.446,37.446,0,0,0-4.395-1.526,37.54,37.54,0,0,0-4.792-11.14,147.728,147.728,0,0,0-32.412-38c6.836-1.16,10.316-2.625,12.208-4.548a128.5,128.5,0,0,1,20.479,5.555C1588.3,440.159,1588.271,465.338,1587.936,474.311Z" transform="translate(-1477.494 -405.6)" fill="#0f2a3f"/>
      </g>
      <path id="Path_20906" data-name="Path 20906" d="M1581.315,379.364s-27.209-3.629-38.516,17.574-28.2,104.321-13.429,106.848c6.537,1.117,23.97,5.506,43.29,4.093,26.558-1.944,32.333-4.389,34.246-9.44l16.923-77.457a32.75,32.75,0,0,0-12.846-27.346C1597.424,383.359,1581.315,379.364,1581.315,379.364Z" transform="translate(-1523.243 -311.16)" fill="#cee5ed"/>
      <path id="Path_20907" data-name="Path 20907" d="M1566.5,390.61s.354,46.647,15.019,49.473,53.715,1.944,53.715,1.944v14.842H1551.48Z" transform="translate(-1466.019 -287.598)" fill="#aac6ce"/>
      <path id="Path_20908" data-name="Path 20908" d="M1564.683,405.727l3.3-16.5-21.4-16.3-4.1,19.447S1549.234,422.076,1564.683,405.727Z" transform="translate(-1484.481 -323.878)" fill="#ea9249"/>
      <path id="Path_20909" data-name="Path 20909" d="M1597.641,390.766s-11.2,5.448-27.6-4.547c0,0-3.8,6.84-14.793,12.947,0,0-5.713-9.577-9-2.4a15.119,15.119,0,0,0-1.511,5.854c-10.3-13.294-3.036-30.813,6.562-40.256,9.095-8.964,28.787-5.4,41.086-.458,13.054,5.256,15.455-3.885,15.455-3.885C1624.34,381.262,1597.641,390.766,1597.641,390.766Z" transform="translate(-1490.141 -356.858)" fill="#1e394c"/>
      <path id="Path_20910" data-name="Path 20910" d="M1551.883,379.426s-5.71-9.577-9-2.4c-3.989,8.7.513,14.161,5.912,14.161,0,0,4.288,22.637,25.085,21.038s23.8-35,20.4-41.2c0,0-11.2,5.451-27.6-4.547C1566.682,366.476,1562.882,373.325,1551.883,379.426Z" transform="translate(-1486.781 -337.121)" fill="#f2bf75"/>
      <g id="Group_20184" data-name="Group 20184" transform="translate(95.278 95.248)">
        <path id="Path_20911" data-name="Path 20911" d="M1675.948,388.066h-86.814a9.005,9.005,0,0,0-8.823,7.2l-11.558,56.648h105.193l10.822-53.047A9,9,0,0,0,1675.948,388.066Z" transform="translate(-1525.852 -388.066)" fill="#cee5ed"/>
        <rect id="Rectangle_6200" data-name="Rectangle 6200" width="152.044" height="9.958" rx="1.404" transform="translate(0 63.858)" fill="#80a9b2"/>
        <path id="Path_20912" data-name="Path 20912" d="M1674.384,408.989H1568.376a4.287,4.287,0,0,1,4.285,4.285v1.389a4.287,4.287,0,0,1-4.285,4.285h106.009a4.285,4.285,0,0,0,4.285-4.285v-1.389A4.285,4.285,0,0,0,1674.384,408.989Z" transform="translate(-1526.626 -345.132)" fill="#aac6ce"/>
      </g>
      <path id="Path_20913" data-name="Path 20913" d="M1627.669,461.164c-16.9-1.969-64.318-6.806-72.445-7.645-10.249-1.062,12.016-42.408,14.491-56.545s-8.3-14.665-8.3-14.665c-6.086-.76-12.724,0-18.376,8.564-11.573,17.525-24.465,68.759-17.671,81.409a4.579,4.579,0,0,0,4.044,2.393h98.262Z" transform="translate(-1523.478 -305.095)" fill="#cee5ed"/>
      <path id="Path_20914" data-name="Path 20914" d="M1610.515,461.161s-61.049-4.2-74.212-5.967c-10.209-1.374,11.073-43.732,13.548-57.869s-8.481-13.545-8.481-13.545a26.227,26.227,0,0,0-9.532.894c4.084-2.686,8.369-2.869,12.425-2.375,0,0,10.77.537,8.3,14.671s-21.56,54.6-15.108,56.191C1545.386,455.118,1593.607,459.2,1610.515,461.161Z" transform="translate(-1506.324 -305.093)" fill="#aac6ce"/>
      <path id="Path_20915" data-name="Path 20915" d="M1557.617,420.712h22.771a2.154,2.154,0,0,0,1.807-3.327c-2.134-3.275-5.5-7.9-7.969-8.689-1.474-.47-12.547-.055-16.609.375Z" transform="translate(-1453.426 -250.91)" fill="#f2bf75"/>
      <path id="Path_20916" data-name="Path 20916" d="M1578.827,367.966a18.1,18.1,0,0,1-5.158,1.288c-.275,1.541-.772,4.5-1.041,7.313-.381,4,1.624,16.4.381,16.5a36.475,36.475,0,0,1-3.815-.095s-1.907,17.931-19.838,15.068c-.168-.028-.3-.046-.464-.07a22.669,22.669,0,0,0,9.535,1.2C1579.227,407.566,1582.227,374.168,1578.827,367.966Z" transform="translate(-1471.327 -334.064)" fill="#ea9249" opacity="0.67"/>
    </g>
    <g id="Group_20190" data-name="Group 20190" transform="translate(398.583 292.04)">
      <g id="Group_20186" data-name="Group 20186" transform="translate(63.246 17.664)">
        <path id="Path_20917" data-name="Path 20917" d="M1668.337,530.783s28.6-14.186,20.821-35.7-12.583-22.423,2.289-34.549,36.38-42.56,9.153-44.846-25.856,33.862-48.508,38.9S1617.082,554.351,1668.337,530.783Z" transform="translate(-1632.48 -415.588)" fill="#67b8ef"/>
        <path id="Path_20918" data-name="Path 20918" d="M1636.853,532.912c5.493,2.548,12.879,2.3,22.511-2.13,0,0,28.6-14.186,20.821-35.7s-12.583-22.423,2.289-34.549,36.38-42.56,9.153-44.846a25.017,25.017,0,0,0-7.261.388c7.664,3.183,15.287,9.5,5.436,21.184-16.4,19.457-25.179,26.324-23.272,38.913C1668.389,488.45,1667.333,516.324,1636.853,532.912Z" transform="translate(-1623.507 -415.586)" fill="#34648c" opacity="0.25"/>
      </g>
      <g id="Group_20187" data-name="Group 20187" transform="translate(0 47.729)">
        <path id="Path_20919" data-name="Path 20919" d="M1662.352,509.883s-25.17-.916-23.8-18.992,2.073-18.782-13.728-24.483c-27.914-10.066-5.814-63.68,16.932-29.974,15.788,23.4,22.652,18.135,32.946,19.966S1707.427,517.891,1662.352,509.883Z" transform="translate(-1611.757 -425.439)" fill="#67b8ef"/>
        <path id="Path_20920" data-name="Path 20920" d="M1673.423,456.4c-10.295-1.831-17.159,3.43-32.946-19.966-11.906-17.644-23.623-11.35-28.094.085,6.7-2.051,16.871-3.284,18.141,7.618,1.642,14.143,34.729,37.363,34.054,66.229.44.049.864.079,1.288.113,4.813-12.7,11.167-29.162,16.606-43.192C1679.563,461.234,1676.09,456.87,1673.423,456.4Z" transform="translate(-1610.473 -425.436)" fill="#34648c" opacity="0.29"/>
      </g>
      <g id="Group_20188" data-name="Group 20188" transform="translate(33.628)">
        <path id="Path_20921" data-name="Path 20921" d="M1645.578,541.17s-31.234-30.545-20.592-35.693,31.573,11.671,19.9-6.522-25.258-46.522-9.125-42.063,17.3,9.364,15.3-11.821c-2.582-27.4,12.7-41.529,27.114-32.6s-12.355,69.329-2.4,62.807,18.19-12.013,20.25-4.117-28.5,38.886-17.161,33.633c14.073-6.519,16.13,5.149,11.668,12.358S1667.544,567.256,1645.578,541.17Z" transform="translate(-1622.776 -409.8)" fill="#34648c"/>
        <path id="Path_20922" data-name="Path 20922" d="M1670.38,517.134c4.462-7.209,2.4-18.877-11.668-12.358-11.335,5.252,19.218-25.741,17.161-33.633s-10.3-2.4-20.25,4.117,16.817-53.883,2.4-62.807c-6.7-4.151-13.573-3.263-18.767,1.575,7.462,1.825,13.438,7.828,9.3,24.035-8.774,34.335-14.115,62.948,1.908,54.555,15.092-7.908-17.531,28.527-17.864,54.784C1651.329,558.1,1666.415,523.54,1670.38,517.134Z" transform="translate(-1602.617 -409.786)" fill="#1e394c" opacity="0.48"/>
      </g>
      <g id="Group_20189" data-name="Group 20189" transform="translate(34.773 129.374)">
        <path id="Path_20923" data-name="Path 20923" d="M1623.182,457.769l6.043,54.729a13.5,13.5,0,0,0,13.42,12.019h34.888a13.5,13.5,0,0,0,13.419-12.019l6.043-54.729a5.027,5.027,0,0,0-5-5.579h-63.818A5.028,5.028,0,0,0,1623.182,457.769Z" transform="translate(-1623.151 -452.19)" fill="#cee5ed"/>
        <path id="Path_20924" data-name="Path 20924" d="M1670.312,452.19h-22.127a5.027,5.027,0,0,1,5,5.579l-6.043,54.729a13.5,13.5,0,0,1-13.42,12.019h22.127a13.5,13.5,0,0,0,13.42-12.019l6.043-54.729A5.027,5.027,0,0,0,1670.312,452.19Z" transform="translate(-1601.464 -452.19)" fill="#aac6ce"/>
      </g>
    </g>
    <g id="Group_20209" data-name="Group 20209" transform="translate(40.889 300.084)">
      <g id="Group_20191" data-name="Group 20191" transform="translate(11.812)">
        <rect id="Rectangle_6201" data-name="Rectangle 6201" width="389.26" height="17.669" rx="2.491" transform="translate(0)" fill="#3e8ccc"/>
        <path id="Path_20925" data-name="Path 20925" d="M1880.084,412.436H1506.03a7.6,7.6,0,0,0-7.6,7.6V422.5a7.548,7.548,0,0,0,.394,2.3,7.576,7.576,0,0,1,7.209-5.3h374.054a7.576,7.576,0,0,1,7.209,5.3,7.453,7.453,0,0,0,.394-2.3v-2.463A7.6,7.6,0,0,0,1880.084,412.436Z" transform="translate(-1498.428 -412.436)" fill="#2173aa"/>
      </g>
      <g id="Group_20208" data-name="Group 20208" transform="translate(0 17.757)">
        <g id="Group_20193" data-name="Group 20193" transform="translate(38.166)">
          <g id="Group_20192" data-name="Group 20192">
            <path id="Path_20926" data-name="Path 20926" d="M1606.54,594.417h-12.5l-86.975-176.163h12.5Z" transform="translate(-1507.063 -418.254)" fill="#34648c"/>
          </g>
        </g>
        <g id="Group_20195" data-name="Group 20195">
          <g id="Group_20194" data-name="Group 20194">
            <path id="Path_20927" data-name="Path 20927" d="M1494.558,594.417h12.5l86.975-176.163h-12.5Z" transform="translate(-1494.558 -418.254)" fill="#34648c"/>
          </g>
        </g>
        <g id="Group_20197" data-name="Group 20197" transform="translate(307.446)">
          <g id="Group_20196" data-name="Group 20196">
            <path id="Path_20928" data-name="Path 20928" d="M1694.77,594.417h-12.5l-86.975-176.163h12.5Z" transform="translate(-1595.293 -418.254)" fill="#34648c"/>
          </g>
        </g>
        <g id="Group_20199" data-name="Group 20199" transform="translate(269.28)">
          <g id="Group_20198" data-name="Group 20198">
            <path id="Path_20929" data-name="Path 20929" d="M1582.788,594.417h12.5l86.975-176.163h-12.5Z" transform="translate(-1582.788 -418.254)" fill="#34648c"/>
          </g>
        </g>
        <g id="Group_20201" data-name="Group 20201" transform="translate(38.166)">
          <g id="Group_20200" data-name="Group 20200">
            <path id="Path_20930" data-name="Path 20930" d="M1523.01,425.234l-3.446-6.98h-12.5l3.446,6.98Z" transform="translate(-1507.063 -418.254)" fill="#1a3651"/>
          </g>
        </g>
        <g id="Group_20203" data-name="Group 20203" transform="translate(83.529)">
          <g id="Group_20202" data-name="Group 20202">
            <path id="Path_20931" data-name="Path 20931" d="M1534.428,425.234l3.446-6.98h-12.5l-3.446,6.98Z" transform="translate(-1521.926 -418.254)" fill="#1a3651"/>
          </g>
        </g>
        <g id="Group_20205" data-name="Group 20205" transform="translate(307.446)">
          <g id="Group_20204" data-name="Group 20204">
            <path id="Path_20932" data-name="Path 20932" d="M1611.241,425.234l-3.446-6.98h-12.5l3.445,6.98Z" transform="translate(-1595.293 -418.254)" fill="#1a3651"/>
          </g>
        </g>
        <g id="Group_20207" data-name="Group 20207" transform="translate(352.81)">
          <g id="Group_20206" data-name="Group 20206">
            <path id="Path_20933" data-name="Path 20933" d="M1622.658,425.234l3.446-6.98h-12.5l-3.445,6.98Z" transform="translate(-1610.157 -418.254)" fill="#1a3651"/>
          </g>
        </g>
      </g>
    </g>
  </g>
</svg>
